<svg width="32" height="32" viewBox="0 0 32 32" fill="none" xmlns="http://www.w3.org/2000/svg">
<path d="M16.0001 0C9.0134 0 3.09341 4.48 0.906738 10.6667H31.0934C28.9067 4.48 22.9867 0 16.0001 0Z" fill="#ED4C5C"/>
<path d="M16.0001 32C22.9867 32 28.9067 27.5734 31.0934 21.3334H0.906738C3.09341 27.5734 9.0134 32 16.0001 32Z" fill="#F2B200"/>
<path d="M0.906667 10.6666C0.32 12.32 0 14.1333 0 16C0 17.8666 0.32 19.68 0.906667 21.3333H31.0933C31.68 19.68 32 17.8666 32 16C32 14.1333 31.68 12.32 31.0933 10.6666H0.906667Z" fill="#2A5F9E"/>
</svg>
