<svg width="15" height="8" viewBox="0 0 15 8" fill="none" xmlns="http://www.w3.org/2000/svg">
<path d="M6.99636 7.00124C6.76287 7.00169 6.5366 6.92032 6.35681 6.77124L0.361 1.77125C0.156926 1.60151 0.0285913 1.3576 0.00422855 1.09317C-0.0201342 0.828748 0.0614707 0.565467 0.231091 0.361251C0.400711 0.157035 0.644452 0.0286112 0.908694 0.00423151C1.17294 -0.0201482 1.43603 0.0615131 1.64011 0.231251L6.99636 4.71124L12.3526 0.391252C12.4548 0.308186 12.5725 0.246154 12.6987 0.208723C12.825 0.171291 12.9574 0.159197 13.0883 0.173136C13.2192 0.187076 13.3461 0.226772 13.4617 0.289946C13.5772 0.35312 13.6792 0.438524 13.7616 0.541251C13.8532 0.644072 13.9225 0.764698 13.9652 0.895571C14.008 1.02644 14.0233 1.16475 14.0101 1.30181C13.997 1.43887 13.9557 1.57174 13.8889 1.6921C13.8221 1.81246 13.7311 1.9177 13.6217 2.00125L7.62592 6.83124C7.44097 6.95675 7.21931 7.01661 6.99636 7.00124V7.00124Z" fill="#808A8A"/>
</svg>
