<svg width="32" height="32" viewBox="0 0 32 32" fill="none" xmlns="http://www.w3.org/2000/svg">
<path d="M24.5333 2.45333C22.0267 0.906666 19.1467 0 16 0V2.45333H24.5333Z" fill="#ED4C5C"/>
<path d="M16 4.90646H27.52C26.6133 3.99979 25.6 3.14646 24.5333 2.45312H16V4.90646Z" fill="white"/>
<path d="M16 7.35983H29.4933C28.9067 6.45316 28.2667 5.65316 27.5733 4.90649H16V7.35983Z" fill="#ED4C5C"/>
<path d="M16 9.81344H30.7733C30.4 8.96011 29.9733 8.10677 29.4933 7.36011H16V9.81344Z" fill="white"/>
<path d="M16 12.2668H31.5733C31.36 11.4135 31.0933 10.6135 30.7733 9.81348H16V12.2668Z" fill="#ED4C5C"/>
<path d="M16 14.7734H31.9467C31.8933 13.9201 31.7333 13.1201 31.5733 12.3201H16V14.7734Z" fill="white"/>
<path d="M31.9467 14.7734H16V16.0001H0C0 16.4268 -5.16573e-08 16.8001 0.0533333 17.2268H31.9467C32 16.8001 32 16.4268 32 16.0001C32 15.5734 32 15.1468 31.9467 14.7734Z" fill="#ED4C5C"/>
<path d="M0.426373 19.6799H31.573C31.7863 18.8799 31.893 18.0799 31.9463 17.2266H0.0530396C0.106373 18.0266 0.213039 18.8799 0.426373 19.6799Z" fill="white"/>
<path d="M1.22621 22.1333H30.7729C31.0929 21.3333 31.3595 20.5333 31.5729 19.6799H0.426208C0.639542 20.5333 0.906208 21.3333 1.22621 22.1333Z" fill="#ED4C5C"/>
<path d="M2.50662 24.5864H29.4933C29.9733 23.7864 30.3999 22.9864 30.7733 22.1331H1.22662C1.59996 22.9864 2.02662 23.7864 2.50662 24.5864Z" fill="white"/>
<path d="M4.42622 27.04H27.5729C28.2662 26.2933 28.9595 25.44 29.4929 24.5867H2.50623C3.03956 25.4933 3.73289 26.2933 4.42622 27.04Z" fill="#ED4C5C"/>
<path d="M7.41287 29.4934H24.5862C25.7062 28.8 26.6662 27.9467 27.5729 27.04H4.42621C5.33287 28 6.34621 28.8 7.41287 29.4934Z" fill="white"/>
<path d="M16.0004 31.9998C19.147 31.9998 22.0803 31.0932 24.587 29.4932H7.4137C9.92036 31.0932 12.8537 31.9998 16.0004 31.9998Z" fill="#ED4C5C"/>
<path d="M7.46666 2.45333C6.34666 3.14667 5.33333 4 4.42666 4.90666C3.68 5.65333 3.04 6.50666 2.50667 7.36C2.02667 8.16 1.54667 8.96 1.22667 9.81333C0.906666 10.6133 0.64 11.4133 0.426666 12.2667C0.213333 13.0667 0.106667 13.8667 0.0533333 14.72C-5.16573e-08 15.1467 0 15.5733 0 16H16V0C12.8533 0 9.97333 0.906666 7.46666 2.45333Z" fill="#428BC1"/>
<path d="M12.2663 0.533203L12.5329 1.3332H13.3329L12.6929 1.86654L12.9063 2.66653L12.2663 2.18654L11.6263 2.66653L11.8396 1.86654L11.1996 1.3332H11.9996L12.2663 0.533203Z" fill="white"/>
<path d="M14.4003 3.7334L14.667 4.5334H15.467L14.827 5.06673L15.0403 5.86673L14.4003 5.38673L13.7603 5.86673L13.9737 5.06673L13.3337 4.5334H14.1337L14.4003 3.7334Z" fill="white"/>
<path d="M10.1332 3.7334L10.3999 4.5334H11.1999L10.5599 5.06673L10.7732 5.86673L10.1332 5.38673L9.49319 5.86673L9.70653 5.06673L9.06653 4.5334H9.86653L10.1332 3.7334Z" fill="white"/>
<path d="M12.2663 6.93335L12.5329 7.73335H13.3329L12.6929 8.26668L12.9063 9.06668L12.2663 8.58668L11.6263 9.06668L11.8396 8.26668L11.1996 7.73335H11.9996L12.2663 6.93335Z" fill="white"/>
<path d="M8.00014 6.93335L8.2668 7.73335H9.0668L8.4268 8.26668L8.64014 9.06668L8.00014 8.58668L7.36014 9.06668L7.57347 8.26668L6.93347 7.73335H7.73347L8.00014 6.93335Z" fill="white"/>
<path d="M3.73299 6.93335L3.99965 7.73335H4.79965L4.15965 8.26668L4.37299 9.06668L3.73299 8.58668L3.09299 9.06668L3.30632 8.26668L2.66632 7.73335H3.46632L3.73299 6.93335Z" fill="white"/>
<path d="M14.4003 10.1331L14.667 10.9331H15.467L14.827 11.4664L15.0403 12.2664L14.4003 11.7864L13.7603 12.2664L13.9737 11.4664L13.3337 10.9331H14.1337L14.4003 10.1331Z" fill="white"/>
<path d="M10.1332 10.1331L10.3999 10.9331H11.1999L10.5599 11.4664L10.7732 12.2664L10.1332 11.7864L9.49319 12.2664L9.70653 11.4664L9.06653 10.9331H9.86653L10.1332 10.1331Z" fill="white"/>
<path d="M5.86708 10.1331L6.13375 10.9331H6.93375L6.29375 11.4664L6.50708 12.2664L5.86708 11.7864L5.22708 12.2664L5.44041 11.4664L4.80042 10.9331H5.60041L5.86708 10.1331Z" fill="white"/>
<path d="M12.2663 13.333L12.5329 14.133H13.3329L12.6929 14.6663L12.9063 15.4663L12.2663 14.9863L11.6263 15.4663L11.8396 14.6663L11.1996 14.133H11.9996L12.2663 13.333Z" fill="white"/>
<path d="M8.00014 13.333L8.2668 14.133H9.0668L8.4268 14.6663L8.64014 15.4663L8.00014 14.9863L7.36014 15.4663L7.57347 14.6663L6.93347 14.133H7.73347L8.00014 13.333Z" fill="white"/>
<path d="M3.73299 13.333L3.99965 14.133H4.79965L4.15965 14.6663L4.37299 15.4663L3.73299 14.9863L3.09299 15.4663L3.30632 14.6663L2.66632 14.133H3.46632L3.73299 13.333Z" fill="white"/>
<path d="M5.22673 5.86673L5.86673 5.38673L6.50673 5.86673L6.24006 5.06673L6.88006 4.5334H6.08006L5.86673 3.7334L5.60006 4.5334H4.85339L5.49339 5.0134L5.22673 5.86673Z" fill="white"/>
<path d="M0.959671 12.2664L1.59967 11.7864L2.23967 12.2664L1.973 11.4664L2.613 10.9331H1.86634L1.59967 10.1331L1.333 10.9331H0.799671C0.799671 10.9864 0.746338 11.0397 0.746338 11.0931L1.173 11.4131L0.959671 12.2664Z" fill="white"/>
</svg>
