<svg width="24" height="24" viewBox="0 0 24 24" fill="none" xmlns="http://www.w3.org/2000/svg">
<g clip-path="url(#clip0)">
<path d="M9.68238 11.6823C12.3561 11.6823 14.5235 9.51481 14.5235 6.84113C14.5235 4.16745 12.3561 2 9.68238 2C7.0087 2 4.84125 4.16745 4.84125 6.84113C4.84125 9.51481 7.0087 11.6823 9.68238 11.6823Z" fill="#808A8A"/>
<path d="M10.4932 12.9166C10.2269 12.9045 9.96063 12.8924 9.68226 12.8924C6.75338 12.8924 4.01814 13.7033 1.68229 15.0951C0.617244 15.7244 0 16.9105 0 18.1571V21.3643H11.2072C10.2511 19.9967 9.68226 18.3265 9.68226 16.5232C9.68226 15.2282 9.98483 14.0179 10.4932 12.9166Z" fill="#808A8A"/>
<path d="M22.693 16.5231C22.693 16.2568 22.6567 16.0148 22.6204 15.7606L24.0001 14.5382L22.7898 12.4444L21.0349 13.0375C20.6476 12.7107 20.2119 12.4565 19.7278 12.275L19.3647 10.4717H16.9442L16.5811 12.275C16.097 12.4565 15.6613 12.7107 15.274 13.0375L13.5191 12.4444L12.3088 14.5382L13.6885 15.7606C13.6522 16.0148 13.6159 16.2568 13.6159 16.5231C13.6159 16.7893 13.6522 17.0314 13.6885 17.2856L12.3088 18.5079L13.5191 20.6017L15.274 20.0087C15.6613 20.3355 16.097 20.5896 16.5811 20.7712L16.9442 22.5745H19.3647L19.7278 20.7712C20.2119 20.5896 20.6476 20.3355 21.0349 20.0087L22.7898 20.6017L24.0001 18.5079L22.6204 17.2856C22.6567 17.0314 22.693 16.7893 22.693 16.5231ZM18.1544 18.9436C16.8231 18.9436 15.7339 17.8544 15.7339 16.5231C15.7339 15.1918 16.8231 14.1025 18.1544 14.1025C19.4858 14.1025 20.575 15.1918 20.575 16.5231C20.575 17.8544 19.4858 18.9436 18.1544 18.9436Z" fill="#808A8A"/>
</g>
<defs>
<clipPath id="clip0">
<rect width="24" height="24" fill="white"/>
</clipPath>
</defs>
</svg>
