<svg width="24" height="24" viewBox="0 0 24 24" fill="none" xmlns="http://www.w3.org/2000/svg">
<g clip-path="url(#clip0)">
<path d="M5.40002 11.8999H1V24H5.40002V11.8999Z" fill="#808A8A"/>
<path d="M17.5001 3.37501C18.2151 2.539 19.3261 2 20.4701 2C22.5051 2 24.1001 3.59501 24.1001 5.63002C24.1001 8.12703 20.8991 11.02 17.5001 14.1001C14.1011 11.009 10.9001 8.11603 10.9001 5.63002C10.9001 3.59501 12.4951 2 14.5301 2C15.6741 2 16.7851 2.539 17.5001 3.37501Z" fill="#808A8A"/>
<path d="M21.9001 18.4999H14.2L11.901 17.6969L12.264 16.6629L14.2 17.3999H17.302C18.0171 17.3999 18.6001 16.8169 18.6001 16.1019C18.6001 15.5629 18.2591 15.0789 17.753 14.8809L9.76702 11.8999H7.60001V21.8219L15.3 24L24.1111 20.6999C24.1001 19.4899 23.1211 18.4999 21.9001 18.4999Z" fill="#808A8A"/>
</g>
<defs>
<clipPath id="clip0">
<rect width="24" height="24" fill="white"/>
</clipPath>
</defs>
</svg>
