<svg width="24" height="24" viewBox="0 0 24 24" fill="none" xmlns="http://www.w3.org/2000/svg">
<path d="M15.7715 11.3086C17.5169 11.3086 18.9153 9.89966 18.9153 8.15429C18.9153 6.40891 17.5169 5 15.7715 5C14.0261 5 12.6172 6.40891 12.6172 8.15429C12.6172 9.89966 14.0261 11.3086 15.7715 11.3086ZM7.36006 11.3086C9.10543 11.3086 10.5038 9.89966 10.5038 8.15429C10.5038 6.40891 9.10543 5 7.36006 5C5.61469 5 4.20578 6.40891 4.20578 8.15429C4.20578 9.89966 5.61469 11.3086 7.36006 11.3086ZM7.36006 13.4114C4.91023 13.4114 6.10352e-05 14.6416 6.10352e-05 17.0914V19.72H14.7201V17.0914C14.7201 14.6416 9.80989 13.4114 7.36006 13.4114ZM15.7715 13.4114C15.4666 13.4114 15.1196 13.4325 14.7516 13.464C15.9713 14.3472 16.8229 15.5353 16.8229 17.0914V19.72H23.1315V17.0914C23.1315 14.6416 18.2213 13.4114 15.7715 13.4114Z" fill="#808A8A"/>
</svg>
