<svg width="18" height="18" viewBox="0 0 21 20" fill="none" xmlns="http://www.w3.org/2000/svg">
<path d="M10.6829 0C11.0142 0 11.3319 0.131696 11.5661 0.366117C11.8004 0.600537 11.932 0.918479 11.932 1.25V8.75H19.4268C19.7581 8.75 20.0758 8.8817 20.31 9.11612C20.5443 9.35054 20.6759 9.66848 20.6759 10C20.6759 10.3315 20.5443 10.6495 20.31 10.8839C20.0758 11.1183 19.7581 11.25 19.4268 11.25H11.932V18.75C11.932 19.0815 11.8004 19.3995 11.5661 19.6339C11.3319 19.8683 11.0142 20 10.6829 20C10.3516 20 10.0339 19.8683 9.79959 19.6339C9.56534 19.3995 9.43373 19.0815 9.43373 18.75V11.25H1.93895C1.60766 11.25 1.28994 11.1183 1.05568 10.8839C0.821424 10.6495 0.689819 10.3315 0.689819 10C0.689819 9.66848 0.821424 9.35054 1.05568 9.11612C1.28994 8.8817 1.60766 8.75 1.93895 8.75H9.43373V1.25C9.43373 0.918479 9.56534 0.600537 9.79959 0.366117C10.0339 0.131696 10.3516 0 10.6829 0Z" fill="#05558F"/>
</svg>
