<svg width="22" height="22" viewBox="0 0 22 22" fill="none" xmlns="http://www.w3.org/2000/svg">
<path d="M9.93958 3.10852H2.98657C2.4597 3.10852 1.95441 3.31796 1.58185 3.69077C1.2093 4.06359 1 4.56923 1 5.09646V19.012C1 19.5393 1.2093 20.0449 1.58185 20.4177C1.95441 20.7905 2.4597 21 2.98657 21H16.8926C17.4194 21 17.9247 20.7905 18.2973 20.4177C18.6699 20.0449 18.8792 19.5393 18.8792 19.012V12.0543" stroke="#C4C4C4" stroke-width="2" stroke-linecap="round" stroke-linejoin="round"/>
<path d="M17.3892 1.61757C17.7844 1.22215 18.3203 1 18.8791 1C19.438 1 19.9739 1.22215 20.3691 1.61757C20.7642 2.013 20.9862 2.54931 20.9862 3.10853C20.9862 3.66775 20.7642 4.20406 20.3691 4.59949L10.9329 14.0422L6.95972 15.0362L7.953 11.0603L17.3892 1.61757Z" stroke="#C4C4C4" stroke-width="2" stroke-linecap="round" stroke-linejoin="round"/>
</svg>
