<svg width="29" height="26" viewBox="0 0 29 26" fill="none" xmlns="http://www.w3.org/2000/svg">
<path d="M10.1226 7V4C10.1226 3.20435 10.4336 2.44129 10.9873 1.87868C11.541 1.31607 12.292 1 13.0751 1H24.885C25.6681 1 26.4191 1.31607 26.9728 1.87868C27.5265 2.44129 27.8375 3.20435 27.8375 4V22C27.8375 22.7957 27.5265 23.5587 26.9728 24.1213C26.4191 24.6839 25.6681 25 24.885 25H13.6656C12.035 25 10.1226 23.6568 10.1226 22V19" stroke="#433F3F" stroke-width="2" stroke-linecap="round" stroke-linejoin="round"/>
<path d="M17.2086 19L23.1136 13L17.2086 7" stroke="#433F3F" stroke-width="2" stroke-linecap="round" stroke-linejoin="round"/>
<path d="M1.85565 13H21.9326" stroke="#433F3F" stroke-width="2" stroke-linecap="round" stroke-linejoin="round"/>
</svg>
